<svg width="211" height="206" viewBox="0 0 211 206" fill="none" xmlns="http://www.w3.org/2000/svg">
<path d="M133.951 46.3287H77.0959C75.8003 46.3303 74.5582 46.8457 73.642 47.7621C72.7259 48.6784 72.2105 49.9207 72.2089 51.2166V177.601L71.5573 177.8L57.6098 182.072C56.9488 182.274 56.2348 182.205 55.6246 181.88C55.0144 181.556 54.5578 181.003 54.3551 180.342L12.8676 44.8004C12.6657 44.1393 12.7346 43.425 13.059 42.8146C13.3834 42.2042 13.9368 41.7475 14.5977 41.5451L36.0908 34.9627L98.4 15.8869L119.893 9.30451C120.22 9.20382 120.564 9.16864 120.904 9.20097C121.245 9.2333 121.576 9.33252 121.878 9.49293C122.181 9.65334 122.449 9.87181 122.666 10.1358C122.884 10.3998 123.048 10.7042 123.148 11.0316L133.753 45.677L133.951 46.3287Z" fill="#F2F2F2"/>
<path d="M146.358 45.677L133.577 3.92137C133.364 3.22565 133.017 2.57865 132.554 2.01734C132.091 1.45604 131.522 0.991444 130.88 0.650092C130.238 0.30874 129.534 0.097324 128.81 0.0279325C128.086 -0.0414589 127.356 0.0325343 126.66 0.245676L96.4422 9.49683L34.1362 28.5759L3.91828 37.8303C2.51451 38.2615 1.33912 39.2321 0.650095 40.5291C-0.0389271 41.8261 -0.185285 43.3435 0.243153 44.7484L43.9265 187.452C44.2745 188.586 44.9768 189.579 45.9302 190.284C46.8836 190.99 48.0381 191.371 49.2241 191.372C49.773 191.372 50.3188 191.29 50.8432 191.128L71.5576 184.787L72.2092 184.585V183.904L71.5576 184.102L50.651 190.505C49.4119 190.883 48.0736 190.754 46.9297 190.146C45.7857 189.538 44.9295 188.502 44.5488 187.263L0.868823 44.5561C0.680214 43.9425 0.614478 43.2977 0.675379 42.6586C0.736279 42.0195 0.922614 41.3988 1.22372 40.8318C1.52484 40.2649 1.93481 39.7629 2.43015 39.3547C2.9255 38.9464 3.49649 38.6399 4.11044 38.4527L34.3284 29.1983L96.6345 10.1225L126.852 0.868075C127.318 0.725934 127.802 0.65346 128.289 0.653006C129.334 0.655352 130.351 0.992277 131.19 1.61443C132.03 2.23658 132.648 3.11127 132.955 4.11038L145.677 45.6771L145.879 46.3288H146.557L146.358 45.677Z" fill="#3F3D56"/>
<path d="M39.9694 41.6516C39.3415 41.6512 38.7302 41.4495 38.2253 41.0761C37.7203 40.7027 37.3483 40.1773 37.1638 39.577L32.9674 25.8675C32.8546 25.4992 32.8155 25.1124 32.8522 24.729C32.889 24.3456 33.0009 23.9732 33.1815 23.6331C33.3622 23.2929 33.6081 22.9917 33.9051 22.7467C34.2022 22.5016 34.5446 22.3174 34.9128 22.2048L92.2338 4.65272C92.9774 4.42577 93.7806 4.50317 94.4672 4.86794C95.1538 5.23271 95.6677 5.85503 95.896 6.59833L100.092 20.308C100.319 21.0517 100.242 21.8551 99.877 22.5417C99.5124 23.2284 98.8903 23.7424 98.1472 23.9709L40.8261 41.5229C40.5485 41.6081 40.2598 41.6515 39.9694 41.6516V41.6516Z" fill="#FF0036"/>
<path d="M61.952 14.6489C65.5507 14.6489 68.468 11.731 68.468 8.1317C68.468 4.53235 65.5507 1.6145 61.952 1.6145C58.3534 1.6145 55.436 4.53235 55.436 8.1317C55.436 11.731 58.3534 14.6489 61.952 14.6489Z" fill="#FF0036"/>
<path d="M61.9523 12.2585C64.2311 12.2585 66.0784 10.4109 66.0784 8.13165C66.0784 5.85243 64.2311 4.00476 61.9523 4.00476C59.6735 4.00476 57.8262 5.85243 57.8262 8.13165C57.8262 10.4109 59.6735 12.2585 61.9523 12.2585Z" fill="white"/>
<path d="M196.339 189.707H86.2185C85.4843 189.706 84.7804 189.414 84.2613 188.895C83.7421 188.376 83.4501 187.672 83.4492 186.937V54.964C83.45 54.2297 83.7421 53.5256 84.2612 53.0064C84.7804 52.4871 85.4843 52.195 86.2185 52.1942H196.339C197.073 52.1951 197.777 52.4872 198.296 53.0064C198.815 53.5257 199.107 54.2297 199.108 54.964V186.937C199.107 187.672 198.815 188.376 198.296 188.895C197.777 189.414 197.073 189.706 196.339 189.707V189.707Z" fill="#E6E6E6"/>
<path d="M145.677 45.677H77.0962C75.6279 45.6791 74.2204 46.2634 73.1821 47.3018C72.1439 48.3402 71.5597 49.7481 71.5576 51.2166V184.102L72.2092 183.903V51.2166C72.2108 49.9208 72.7262 48.6784 73.6423 47.7621C74.5585 46.8458 75.8006 46.3303 77.0962 46.3287H145.879L145.677 45.677ZM205.461 45.677H77.0962C75.6279 45.6791 74.2204 46.2634 73.1821 47.3018C72.1439 48.3402 71.5597 49.7481 71.5576 51.2166V200.46C71.5597 201.929 72.1439 203.337 73.1821 204.375C74.2204 205.414 75.6279 205.998 77.0962 206H205.461C206.93 205.998 208.337 205.414 209.376 204.375C210.414 203.337 210.998 201.929 211 200.46V51.2166C210.998 49.7481 210.414 48.3402 209.376 47.3018C208.337 46.2634 206.93 45.6791 205.461 45.677V45.677ZM210.348 200.46C210.347 201.756 209.832 202.999 208.915 203.915C207.999 204.831 206.757 205.347 205.461 205.348H77.0962C75.8006 205.347 74.5585 204.831 73.6423 203.915C72.7262 202.999 72.2108 201.756 72.2092 200.46V51.2166C72.2108 49.9208 72.7262 48.6784 73.6423 47.7621C74.5585 46.8458 75.8006 46.3303 77.0962 46.3287H205.461C206.757 46.3303 207.999 46.8458 208.915 47.7621C209.832 48.6784 210.347 49.9208 210.348 51.2166V200.46Z" fill="#3F3D56"/>
<path d="M171.252 60.0148H111.305C110.528 60.014 109.783 59.7047 109.233 59.1549C108.683 58.6051 108.374 57.8596 108.373 57.0821V42.7443C108.374 41.9667 108.683 41.2213 109.233 40.6715C109.783 40.1217 110.528 39.8124 111.305 39.8115H171.252C172.03 39.8124 172.775 40.1217 173.325 40.6715C173.875 41.2213 174.184 41.9667 174.185 42.7443V57.0821C174.184 57.8596 173.875 58.6051 173.325 59.1549C172.775 59.7047 172.03 60.014 171.252 60.0148V60.0148Z" fill="#FF0036"/>
<path d="M141.279 40.7892C144.877 40.7892 147.795 37.8713 147.795 34.272C147.795 30.6726 144.877 27.7548 141.279 27.7548C137.68 27.7548 134.763 30.6726 134.763 34.272C134.763 37.8713 137.68 40.7892 141.279 40.7892Z" fill="#FF0036"/>
<path d="M141.278 38.2415C143.47 38.2415 145.247 36.4643 145.247 34.2719C145.247 32.0796 143.47 30.3024 141.278 30.3024C139.086 30.3024 137.31 32.0796 137.31 34.2719C137.31 36.4643 139.086 38.2415 141.278 38.2415Z" fill="white"/>
</svg>