<svg width="453" height="250" viewBox="0 0 453 250" fill="none" xmlns="http://www.w3.org/2000/svg">
<g clip-path="url(#clip0_7:396)">
<path d="M233.1 248.72C225.939 249.773 218.691 250.123 211.461 249.764C194.028 248.886 176.883 243.826 162.231 234.315C155.735 230.097 149.538 224.916 146.175 217.955C141.612 208.503 143.208 196.536 149.725 188.303C152.102 185.333 155.026 182.844 158.34 180.97C158.831 180.693 159.333 180.427 159.84 180.171C165.362 177.401 171.564 176.268 177.711 176.907C188.162 178.046 197.807 184.415 203.38 193.314C208.344 201.249 210.073 210.611 211.093 219.995C211.285 221.763 211.451 223.536 211.611 225.299C210.722 230.406 209.326 235.412 207.442 240.242C207.346 240.478 207.268 240.72 207.207 240.967C208.275 243.278 209.29 245.61 210.255 247.964C211.161 248.455 212.176 248.711 213.207 248.71H233.058L233.1 248.72Z" fill="#F2F2F2"/>
<path d="M209.844 249.173C209.712 249.232 209.57 249.264 209.426 249.267C209.282 249.27 209.139 249.245 209.005 249.192C208.87 249.14 208.748 249.061 208.645 248.961C208.541 248.861 208.459 248.741 208.403 248.609C208.317 248.406 208.237 248.204 208.152 248.002C207.383 246.138 206.577 244.291 205.734 242.463C194.937 218.868 178.832 198.075 158.671 181.7C158.555 181.619 158.464 181.508 158.406 181.38C158.347 181.251 158.325 181.11 158.34 180.97C158.369 180.809 158.435 180.658 158.531 180.526C158.627 180.394 158.752 180.286 158.897 180.209C159.041 180.132 159.201 180.089 159.364 180.082C159.527 180.076 159.69 180.106 159.84 180.171C159.92 180.207 159.996 180.254 160.064 180.31C168.69 187.319 176.603 195.159 183.689 203.715C190.776 212.263 197.017 221.477 202.323 231.226C203.769 233.889 205.143 236.589 206.444 239.326C206.7 239.87 206.956 240.418 207.207 240.967C208.274 243.278 209.29 245.61 210.255 247.964C210.271 248.001 210.287 248.044 210.303 248.081C210.352 248.182 210.379 248.292 210.382 248.404C210.385 248.516 210.364 248.628 210.321 248.731C210.278 248.834 210.212 248.927 210.13 249.003C210.048 249.08 209.95 249.138 209.844 249.173Z" fill="white"/>
<path d="M139.05 178.936C150.547 178.936 159.867 169.637 159.867 158.166C159.867 146.696 150.547 137.397 139.05 137.397C127.553 137.397 118.232 146.696 118.232 158.166C118.232 169.637 127.553 178.936 139.05 178.936Z" fill="#FF0036"/>
<path d="M136.986 166.089C136.518 166.09 136.062 165.939 135.687 165.659L135.664 165.641L130.772 161.904C130.545 161.731 130.355 161.515 130.212 161.269C130.069 161.022 129.976 160.75 129.938 160.467C129.901 160.185 129.919 159.898 129.993 159.623C130.066 159.348 130.194 159.09 130.367 158.864C130.541 158.637 130.758 158.448 131.005 158.305C131.252 158.163 131.525 158.07 131.808 158.033C132.091 157.995 132.379 158.014 132.654 158.088C132.93 158.161 133.189 158.288 133.415 158.462L136.584 160.886L144.073 151.142C144.246 150.916 144.463 150.727 144.71 150.584C144.957 150.442 145.23 150.349 145.513 150.312C145.796 150.275 146.083 150.294 146.359 150.367C146.635 150.441 146.893 150.568 147.12 150.741L147.073 150.804L147.121 150.742C147.578 151.092 147.877 151.609 147.952 152.179C148.028 152.749 147.873 153.326 147.523 153.782L138.715 165.243C138.512 165.507 138.25 165.721 137.95 165.868C137.65 166.014 137.32 166.09 136.986 166.089Z" fill="white"/>
<path d="M452.364 250H0.635548C0.467307 250 0.306128 249.933 0.187335 249.814C0.0685433 249.695 0.00183105 249.534 0.00183105 249.366C0.00183105 249.198 0.0685433 249.037 0.187335 248.918C0.306128 248.799 0.467307 248.732 0.635548 248.732H452.364C452.533 248.732 452.694 248.799 452.813 248.918C452.931 249.037 452.998 249.198 452.998 249.366C452.998 249.534 452.931 249.695 452.813 249.814C452.694 249.933 452.533 250 452.364 250Z" fill="#3F3D56"/>
<path d="M88.3639 72.3968C96.8952 72.3968 103.811 65.4967 103.811 56.985C103.811 48.4732 96.8952 41.5731 88.3639 41.5731C79.8326 41.5731 72.9165 48.4732 72.9165 56.985C72.9165 65.4967 79.8326 72.3968 88.3639 72.3968Z" fill="#2F2E41"/>
<path d="M76.3064 48.6754C78.8027 46.1849 79.3086 42.6517 77.4364 40.7839C75.5642 38.916 72.0229 39.4207 69.5267 41.9112C67.0304 44.4017 66.5245 47.9349 68.3967 49.8027C70.2689 51.6706 73.8102 51.1659 76.3064 48.6754Z" fill="#2F2E41"/>
<path d="M104.464 43.781C105.504 41.3518 103.716 38.2609 100.469 36.8774C97.2227 35.4938 93.7479 36.3415 92.7078 38.7707C91.6677 41.1999 93.4563 44.2908 96.7027 45.6744C99.9492 47.0579 103.424 46.2103 104.464 43.781Z" fill="#2F2E41"/>
<path d="M131.378 145.964C131.769 145.224 131.992 144.407 132.031 143.572C132.071 142.736 131.927 141.902 131.609 141.129C131.29 140.355 130.806 139.66 130.19 139.093C129.573 138.527 128.84 138.102 128.041 137.848L105.72 90.7396L95.5104 97.8827L120.661 141.943C120.323 143.31 120.5 144.753 121.158 145.999C121.816 147.245 122.908 148.207 124.229 148.703C125.55 149.198 127.008 149.193 128.325 148.689C129.643 148.184 130.729 147.214 131.378 145.964V145.964Z" fill="#FFB8B8"/>
<path d="M110.839 98.599L98.9848 103.888C98.6475 104.038 98.2816 104.114 97.9122 104.111C97.5427 104.108 97.1783 104.025 96.8438 103.868C96.5092 103.712 96.2125 103.485 95.9736 103.204C95.7348 102.923 95.5595 102.594 95.4597 102.239L91.9639 89.8021C91.2021 88.076 91.1574 86.119 91.8396 84.3601C92.5218 82.6012 93.8752 81.1839 95.6032 80.4191C97.3311 79.6543 99.2925 79.6042 101.057 80.28C102.822 80.9558 104.246 82.3022 105.018 84.024L111.958 94.8784C112.156 95.1892 112.285 95.5391 112.336 95.9042C112.387 96.2694 112.358 96.6411 112.252 96.9942C112.146 97.3473 111.965 97.6734 111.721 97.9503C111.477 98.2273 111.176 98.4485 110.839 98.599Z" fill="#CCCCCC"/>
<path d="M56.0912 150.635C56.9078 150.445 57.6729 150.08 58.3325 149.564C58.9922 149.048 59.5304 148.393 59.9093 147.647C60.2881 146.901 60.4984 146.081 60.5253 145.245C60.5522 144.41 60.3951 143.578 60.065 142.809L81.2036 95.161L69.1112 92.1223L52.135 139.914C50.8773 140.553 49.8981 141.63 49.3831 142.941C48.8681 144.252 48.8529 145.706 49.3406 147.028C49.8283 148.349 50.7848 149.446 52.029 150.111C53.2732 150.776 54.7186 150.962 56.0913 150.635H56.0912Z" fill="#FFB8B8"/>
<path d="M50.3289 237.001L56.478 239.234L68.0401 216.634L58.9643 213.338L50.3289 237.001Z" fill="#FFB8B8"/>
<path d="M66.2579 249.239L46.9323 242.219L49.651 234.769L61.5098 239.077C63.4901 239.796 65.1029 241.271 65.9933 243.177C66.8837 245.083 66.9789 247.263 66.2579 249.239Z" fill="#2F2E41"/>
<path d="M64.8736 223.995C64.4963 223.995 64.1237 223.911 63.7826 223.75L56.7159 220.411C56.1365 220.14 55.68 219.662 55.4361 219.071C55.1922 218.481 55.1787 217.821 55.3982 217.221L75.342 162.119C75.5072 161.663 75.7987 161.263 76.1827 160.965C76.5667 160.668 77.0275 160.485 77.5115 160.438C77.9955 160.391 78.4829 160.482 78.9172 160.7C79.3515 160.918 79.7147 161.255 79.9649 161.671L90.5135 179.212C90.7482 179.603 90.8745 180.049 90.8794 180.504C90.8842 180.96 90.7675 181.409 90.5412 181.804L67.1155 222.705C66.8885 223.098 66.5617 223.424 66.1681 223.65C65.7745 223.877 65.328 223.995 64.8736 223.995Z" fill="#2F2E41"/>
<path d="M88.8538 73.744C96.0943 73.744 101.964 67.8879 101.964 60.6641C101.964 53.4403 96.0943 47.5842 88.8538 47.5842C81.6133 47.5842 75.7438 53.4403 75.7438 60.6641C75.7438 67.8879 81.6133 73.744 88.8538 73.744Z" fill="#FFB8B8"/>
<path d="M107.401 120.133L84.1881 113.764L71.8421 89.1295C71.249 87.946 70.969 86.6309 71.0286 85.3091C71.0882 83.9873 71.4855 82.7026 72.1828 81.577C72.88 80.4515 73.8541 79.5224 75.0124 78.8781C76.1708 78.2338 77.475 77.8956 78.8012 77.8956H97.2694C99.1864 77.8944 101.036 78.6002 102.463 79.8774C107.417 84.3053 117.826 97.0706 107.501 119.911L107.401 120.133Z" fill="#CCCCCC"/>
<path d="M78.3421 103.682L66.5812 98.19C66.2466 98.0338 65.9497 97.8074 65.7107 97.5263C65.4716 97.2452 65.2961 96.916 65.1961 96.5611C65.0961 96.2063 65.074 95.8341 65.1311 95.4699C65.1883 95.1057 65.3235 94.7581 65.5274 94.4507L72.6749 83.6812C73.4861 81.9777 74.9412 80.6647 76.7212 80.03C78.5012 79.3953 80.4608 79.4906 82.1705 80.2951C83.8802 81.0997 85.2003 82.5477 85.8415 84.3218C86.4827 86.0959 86.3927 88.0513 85.5912 89.7593L81.8952 102.095C81.7893 102.448 81.6083 102.774 81.3646 103.051C81.121 103.328 80.8203 103.55 80.4831 103.7C80.1459 103.851 79.7801 103.927 79.4106 103.924C79.0412 103.921 78.6767 103.839 78.3421 103.682Z" fill="#CCCCCC"/>
<path d="M92.5712 243.176H99.1147L102.228 217.993L92.5696 217.994L92.5712 243.176Z" fill="#FFB8B8"/>
<path d="M111.736 249.238L91.1689 249.239L91.1686 241.311L103.789 241.311C105.897 241.31 107.918 242.146 109.408 243.632C110.898 245.119 111.735 247.135 111.736 249.238Z" fill="#2F2E41"/>
<path d="M95.0419 233.58C94.4536 233.581 93.8829 233.379 93.4261 233.009C92.9693 232.639 92.6544 232.123 92.5344 231.549C90.6534 222.706 80.8841 177.414 73.2593 154.085C65.5013 130.349 78.7135 119.538 81.4408 117.612C81.7313 117.407 81.9621 117.129 82.1096 116.806L84.091 112.457C84.2965 112.008 84.6269 111.628 85.0431 111.361C85.4592 111.094 85.9434 110.952 86.4381 110.952H86.4542C101.308 111.041 106.302 115.712 107.759 117.717C107.974 118.015 108.122 118.357 108.191 118.718C108.261 119.079 108.251 119.451 108.162 119.808L98.7632 158.494C98.7049 158.734 98.6917 158.983 98.7242 159.228L108.075 229.47C108.12 229.808 108.097 230.151 108.008 230.48C107.918 230.809 107.764 231.116 107.554 231.385C107.345 231.654 107.083 231.878 106.786 232.045C106.488 232.212 106.16 232.318 105.821 232.357L95.3438 233.563C95.2436 233.574 95.1428 233.58 95.0419 233.58Z" fill="#2F2E41"/>
<path d="M75.0782 52.437C78.0741 54.497 81.6299 55.5934 85.2683 55.5789C83.9704 56.4768 82.4929 57.0832 80.9375 57.3566C85.7751 58.3919 90.7748 58.4199 95.6237 57.4389C96.7016 57.2665 97.7416 56.9101 98.6981 56.3854C99.1748 56.1198 99.5901 55.7571 99.9171 55.3208C100.244 54.8846 100.475 54.3846 100.596 53.8533C100.918 52.0168 99.4837 50.3483 97.9931 49.2238C95.711 47.5284 93.0796 46.3603 90.2895 45.8041C87.4993 45.2478 84.6201 45.3173 81.8601 46.0074C80.058 46.4722 78.2526 47.2574 77.082 48.7014C75.9115 50.1453 75.5648 52.3714 76.68 53.8583L75.0782 52.437Z" fill="#2F2E41"/>
<path d="M315.728 109.172C319.561 109.172 322.667 106.072 322.667 102.249C322.667 98.4254 319.561 95.3258 315.728 95.3258C311.896 95.3258 308.789 98.4254 308.789 102.249C308.789 106.072 311.896 109.172 315.728 109.172Z" fill="#FF0036"/>
<path d="M315.041 104.89C314.884 104.89 314.732 104.84 314.608 104.746L314.6 104.741L312.969 103.495C312.893 103.437 312.83 103.365 312.782 103.283C312.734 103.201 312.703 103.11 312.69 103.016C312.678 102.922 312.684 102.826 312.708 102.734C312.733 102.642 312.775 102.556 312.833 102.48C312.891 102.405 312.963 102.342 313.046 102.294C313.128 102.247 313.22 102.216 313.314 102.203C313.409 102.191 313.505 102.197 313.597 102.222C313.689 102.247 313.775 102.289 313.85 102.347L314.907 103.155L317.403 99.9076C317.461 99.8323 317.533 99.7691 317.615 99.7216C317.697 99.6741 317.788 99.6433 317.883 99.6309C317.977 99.6184 318.073 99.6247 318.165 99.6492C318.257 99.6737 318.343 99.7161 318.418 99.7739L318.403 99.7949L318.419 99.7742C318.571 99.891 318.671 100.063 318.696 100.253C318.721 100.443 318.67 100.635 318.553 100.788L315.617 104.608C315.549 104.696 315.462 104.767 315.362 104.816C315.262 104.865 315.152 104.89 315.041 104.89Z" fill="white"/>
<path d="M315.728 129.409C319.561 129.409 322.667 126.309 322.667 122.486C322.667 118.662 319.561 115.563 315.728 115.563C311.896 115.563 308.789 118.662 308.789 122.486C308.789 126.309 311.896 129.409 315.728 129.409Z" fill="#FF0036"/>
<path d="M315.041 125.127C314.884 125.127 314.732 125.077 314.608 124.983L314.6 124.977L312.969 123.732C312.893 123.674 312.83 123.602 312.782 123.52C312.734 123.438 312.703 123.347 312.69 123.253C312.678 123.158 312.684 123.062 312.708 122.971C312.733 122.879 312.775 122.793 312.833 122.717C312.891 122.642 312.963 122.578 313.046 122.531C313.128 122.483 313.22 122.452 313.314 122.44C313.409 122.428 313.505 122.434 313.597 122.459C313.689 122.483 313.775 122.526 313.85 122.584L314.907 123.392L317.403 120.144C317.461 120.069 317.533 120.006 317.615 119.958C317.697 119.911 317.788 119.88 317.883 119.868C317.977 119.855 318.073 119.861 318.165 119.886C318.257 119.91 318.343 119.953 318.418 120.011L318.403 120.032L318.419 120.011C318.571 120.128 318.671 120.3 318.696 120.49C318.721 120.68 318.67 120.872 318.553 121.024L315.617 124.845C315.549 124.933 315.462 125.004 315.362 125.053C315.262 125.102 315.152 125.127 315.041 125.127Z" fill="white"/>
<path d="M319.465 152.841C323.297 152.841 326.404 149.741 326.404 145.918C326.404 142.094 323.297 138.995 319.465 138.995C315.632 138.995 312.526 142.094 312.526 145.918C312.526 149.741 315.632 152.841 319.465 152.841Z" fill="#FF0036"/>
<path d="M318.777 148.559C318.621 148.559 318.469 148.509 318.344 148.415L318.336 148.409L316.705 147.164C316.63 147.106 316.566 147.034 316.518 146.952C316.47 146.87 316.439 146.779 316.427 146.685C316.414 146.59 316.42 146.495 316.445 146.403C316.469 146.311 316.512 146.225 316.57 146.149C316.628 146.074 316.7 146.01 316.782 145.963C316.865 145.915 316.956 145.885 317.05 145.872C317.145 145.86 317.241 145.866 317.333 145.891C317.425 145.916 317.511 145.958 317.587 146.016L318.643 146.824L321.139 143.576C321.197 143.501 321.269 143.438 321.352 143.39C321.434 143.343 321.525 143.312 321.619 143.3C321.714 143.287 321.809 143.293 321.901 143.318C321.993 143.343 322.079 143.385 322.155 143.443L322.139 143.464L322.155 143.443C322.308 143.56 322.407 143.732 322.432 143.922C322.458 144.112 322.406 144.304 322.289 144.456L319.353 148.277C319.285 148.365 319.198 148.436 319.098 148.485C318.998 148.534 318.888 148.559 318.777 148.559Z" fill="white"/>
<path d="M386.377 203.72C386.305 203.72 386.259 203.718 386.243 203.717L377.629 203.718V202.451H386.275C386.475 202.458 390.559 202.573 394.322 198.017C399.93 191.228 404.535 174.421 394.628 132.906C381.306 77.0844 392.417 27.7689 397.812 9.1573C398.078 8.23651 398.126 7.26666 397.951 6.32437C397.777 5.38209 397.385 4.49321 396.807 3.72793C396.229 2.96266 395.48 2.34198 394.621 1.91493C393.761 1.48788 392.813 1.26617 391.853 1.26731H263.195C262.217 1.26862 261.253 1.50001 260.381 1.94271C259.51 2.3854 258.755 3.02693 258.178 3.81522C255.893 6.95191 252.756 12.9778 250.794 23.8736L249.543 23.6496C251.549 12.5171 254.787 6.31392 257.151 3.07017C257.845 2.12033 258.755 1.3473 259.805 0.813856C260.855 0.280409 262.017 0.00157773 263.195 3.4491e-06H391.853C393.01 -0.0011078 394.152 0.266317 395.188 0.781149C396.224 1.29598 397.126 2.04412 397.822 2.96645C398.519 3.88877 398.99 4.96003 399.2 6.09557C399.411 7.23111 399.353 8.39984 399.033 9.5094C393.665 28.0245 382.612 77.0841 395.864 132.613C405.91 174.711 401.08 191.883 395.26 198.875C391.421 203.486 387.191 203.72 386.377 203.72Z" fill="#E6E6E6"/>
<path d="M363.195 226.848C363.123 226.848 363.078 226.846 363.062 226.845L354.447 226.846V225.579H363.093C363.294 225.585 367.377 225.701 371.141 221.146C376.748 214.356 381.353 197.549 371.446 156.034C358.125 100.213 369.235 50.8971 374.631 32.2855C374.896 31.3647 374.944 30.3948 374.77 29.4526C374.595 28.5103 374.203 27.6214 373.625 26.8561C373.047 26.0908 372.299 25.4702 371.439 25.0431C370.579 24.6161 369.632 24.3944 368.671 24.3955H240.014C239.036 24.3968 238.072 24.6282 237.2 25.0709C236.328 25.5136 235.573 26.1551 234.997 26.9434C232.711 30.0801 229.575 36.1059 227.612 47.0018L226.362 46.7778C228.367 35.6452 231.606 29.4421 233.969 26.1983C234.664 25.2485 235.573 24.4755 236.624 23.942C237.674 23.4086 238.835 23.1298 240.014 23.1282H368.671C369.829 23.1271 370.971 23.3945 372.007 23.9093C373.043 24.4242 373.944 25.1723 374.641 26.0946C375.337 27.017 375.809 28.0882 376.019 29.2238C376.229 30.3593 376.171 31.528 375.851 32.6376C370.484 51.1527 359.43 100.212 372.682 155.741C382.728 197.839 377.899 215.011 372.078 222.003C368.239 226.615 364.009 226.848 363.195 226.848Z" fill="#CCCCCC"/>
<path d="M349.5 178.872C336.247 123.343 347.301 74.2796 352.671 55.7682C352.99 54.6586 353.047 53.4901 352.837 52.3548C352.627 51.2195 352.155 50.1484 351.459 49.2262C350.763 48.3039 349.861 47.5556 348.826 47.0403C347.79 46.525 346.649 46.2569 345.491 46.257H216.831C215.653 46.2581 214.492 46.5365 213.442 47.0695C212.392 47.6025 211.483 48.375 210.789 49.3244C205.595 56.4499 194.818 80.079 206.855 145.46C213.292 180.437 213.196 204.285 211.093 219.995C209.913 228.84 208.093 235.103 206.444 239.326L206.268 239.774C205.92 240.628 205.739 241.541 205.734 242.463C205.722 243.504 205.931 244.536 206.348 245.491C206.764 246.446 207.379 247.301 208.152 248.002C208.655 248.472 209.225 248.867 209.844 249.173C210.357 249.434 210.9 249.633 211.461 249.764C212.033 249.903 212.619 249.973 213.207 249.972H339.882C339.898 249.972 339.94 249.977 340.015 249.977C340.826 249.977 345.059 249.743 348.897 245.131C354.715 238.139 359.546 220.969 349.5 178.872ZM347.958 244.274C344.195 248.832 340.111 248.715 339.914 248.71H213.207C212.192 248.71 211.193 248.461 210.297 247.987C209.401 247.513 208.635 246.826 208.066 245.988C207.566 245.264 207.23 244.439 207.081 243.572C206.933 242.705 206.976 241.816 207.207 240.967C207.267 240.72 207.346 240.478 207.442 240.242C209.326 235.412 210.722 230.406 211.611 225.299C214.621 208.923 215.181 183.654 208.104 145.231C196.158 80.3346 206.721 57.0623 211.813 50.07C212.391 49.2829 213.146 48.6423 214.018 48.2001C214.889 47.7579 215.853 47.5265 216.831 47.5244H345.491C346.451 47.5237 347.398 47.7457 348.257 48.1727C349.117 48.5997 349.865 49.2202 350.442 49.985C351.02 50.7499 351.412 51.6382 351.586 52.58C351.761 53.5217 351.714 54.491 351.448 55.4114C346.052 74.0239 334.944 123.343 348.267 179.165C358.174 220.677 353.568 237.484 347.958 244.274Z" fill="#3F3D56"/>
<path d="M288.378 106.722H222.09C220.743 106.722 219.451 106.188 218.498 105.238C217.545 104.287 217.01 102.998 217.01 101.653C217.01 100.309 217.545 99.0195 218.498 98.0688C219.451 97.1182 220.743 96.5841 222.09 96.5841H288.378C289.725 96.5841 291.017 97.1182 291.97 98.0688C292.923 99.0195 293.458 100.309 293.458 101.653C293.458 102.998 292.923 104.287 291.97 105.238C291.017 106.188 289.725 106.722 288.378 106.722Z" fill="#CCCCCC"/>
<path d="M288.378 128.557H222.09C220.743 128.557 219.451 128.023 218.498 127.072C217.545 126.121 217.01 124.832 217.01 123.488C217.01 122.143 217.545 120.854 218.498 119.903C219.451 118.953 220.743 118.418 222.09 118.418H288.378C289.725 118.418 291.017 118.953 291.97 119.903C292.923 120.854 293.458 122.143 293.458 123.488C293.458 124.832 292.923 126.121 291.97 127.072C291.017 128.023 289.725 128.557 288.378 128.557Z" fill="#CCCCCC"/>
<path d="M293.715 150.924H227.428C226.081 150.924 224.788 150.39 223.835 149.439C222.883 148.488 222.347 147.199 222.347 145.855C222.347 144.51 222.883 143.221 223.835 142.27C224.788 141.319 226.081 140.785 227.428 140.785H293.715C295.063 140.785 296.355 141.319 297.308 142.27C298.261 143.221 298.796 144.51 298.796 145.855C298.796 147.199 298.261 148.488 297.308 149.439C296.355 150.39 295.063 150.924 293.715 150.924Z" fill="#CCCCCC"/>
<path d="M297.452 174.356H231.164C229.817 174.356 228.525 173.822 227.572 172.871C226.619 171.92 226.084 170.631 226.084 169.287C226.084 167.942 226.619 166.653 227.572 165.702C228.525 164.751 229.817 164.217 231.164 164.217H297.452C298.799 164.217 300.091 164.751 301.044 165.702C301.997 166.653 302.533 167.942 302.533 169.287C302.533 170.631 301.997 171.92 301.044 172.871C300.091 173.822 298.799 174.356 297.452 174.356Z" fill="#CCCCCC"/>
<path d="M297.48 67.362H249.847C249.179 67.3627 248.518 67.2321 247.901 66.9777C247.284 66.7232 246.723 66.3499 246.25 65.8791C245.778 65.4084 245.403 64.8493 245.148 64.2339C244.892 63.6186 244.76 62.959 244.76 62.2928C244.76 61.6267 244.892 60.9671 245.148 60.3517C245.403 59.7364 245.778 59.1773 246.25 58.7065C246.723 58.2357 247.284 57.8625 247.901 57.608C248.518 57.3536 249.179 57.223 249.847 57.2236H297.48C298.827 57.2236 300.12 57.7577 301.072 58.7084C302.025 59.659 302.561 60.9484 302.561 62.2928C302.561 63.6373 302.025 64.9266 301.072 65.8773C300.12 66.828 298.827 67.362 297.48 67.362Z" fill="#FF0036"/>
<path d="M323.735 176.21C327.567 176.21 330.674 173.11 330.674 169.287C330.674 165.463 327.567 162.364 323.735 162.364C319.903 162.364 316.796 165.463 316.796 169.287C316.796 173.11 319.903 176.21 323.735 176.21Z" fill="#CCCCCC"/>
<path d="M300.654 197.255H234.367C233.02 197.255 231.727 196.721 230.774 195.771C229.822 194.82 229.286 193.531 229.286 192.186C229.286 190.842 229.822 189.552 230.774 188.602C231.727 187.651 233.02 187.117 234.367 187.117H300.654C302.002 187.117 303.294 187.651 304.247 188.602C305.2 189.552 305.735 190.842 305.735 192.186C305.735 193.531 305.2 194.82 304.247 195.771C303.294 196.721 302.002 197.255 300.654 197.255Z" fill="#CCCCCC"/>
<path d="M326.938 199.109C330.77 199.109 333.877 196.01 333.877 192.186C333.877 188.363 330.77 185.263 326.938 185.263C323.105 185.263 319.999 188.363 319.999 192.186C319.999 196.01 323.105 199.109 326.938 199.109Z" fill="#CCCCCC"/>
</g>
<defs>
<clipPath id="clip0_7:396">
<rect width="453" height="250" fill="white"/>
</clipPath>
</defs>
</svg>
